<?xml version="1.0" standalone="no"?>
<!DOCTYPE svg PUBLIC "-//W3C//DTD SVG 20010904//EN"
 "http://www.w3.org/TR/2001/REC-SVG-20010904/DTD/svg10.dtd">
<svg version="1.0" xmlns="http://www.w3.org/2000/svg"
 width="256.000000pt" height="256.000000pt" viewBox="0 0 256.000000 256.000000"
 preserveAspectRatio="xMidYMid meet">

<g transform="translate(0.000000,256.000000) scale(0.100000,-0.100000)"
fill="#000000" stroke="none">
<path d="M2376 2029 c-44 -27 -50 -29 -65 -15 -23 21 -48 1 -29 -22 10 -11 8
-17 -7 -28 -16 -12 -21 -12 -37 3 -14 13 -21 14 -30 5 -9 -9 -9 -15 0 -24 7
-7 12 -15 12 -19 0 -14 -31 -18 -50 -7 -26 17 -50 -3 -31 -26 10 -11 8 -17 -7
-28 -40 -28 -41 -47 -8 -104 33 -57 55 -68 97 -47 24 11 27 10 32 -8 8 -28 32
-18 31 12 -1 13 6 29 15 36 13 9 17 8 23 -8 4 -10 15 -19 24 -19 13 0 15 6 11
29 -5 23 -2 30 18 39 20 9 24 8 28 -10 8 -28 32 -17 30 14 -1 20 8 30 53 54
49 26 54 32 54 62 0 45 -26 98 -60 122 -37 26 -48 25 -104 -11z m4 -53 c0 -17
-27 -29 -35 -16 -4 6 -3 15 0 20 9 15 35 12 35 -4z m-53 -33 c2 -5 -8 -18 -22
-27 -23 -15 -26 -15 -31 -1 -4 9 1 22 12 30 21 16 36 15 41 -2z m-70 -49 c2
-5 -6 -15 -18 -22 -30 -19 -53 3 -24 24 20 15 37 14 42 -2z m183 -29 c0 -8 -6
-15 -14 -15 -17 0 -28 14 -19 24 12 12 33 6 33 -9z m-250 -16 c0 -5 -7 -9 -15
-9 -15 0 -20 12 -9 23 8 8 24 -1 24 -14z m186 -25 c-25 -18 -46 -18 -46 -1 0
19 42 38 55 25 7 -6 3 -14 -9 -24z m-62 -19 c6 -17 -29 -39 -50 -31 -21 8 -17
21 9 34 30 15 34 14 41 -3z m-74 -46 c0 -5 -7 -9 -15 -9 -15 0 -20 12 -9 23 8
8 24 -1 24 -14z"/>
<path d="M1998 1767 l-57 -32 28 -48 c43 -74 43 -74 106 -36 30 18 54 36 53
39 -15 30 -64 110 -68 110 -3 0 -31 -15 -62 -33z"/>
<path d="M1861 1690 c-30 -17 -56 -32 -59 -34 -5 -6 56 -113 68 -121 10 -6
120 60 120 71 0 9 -64 114 -70 114 -3 0 -29 -14 -59 -30z"/>
<path d="M1727 1616 c-63 -38 -63 -39 -22 -105 20 -34 38 -61 41 -61 8 0 104
62 104 67 0 11 -72 123 -78 122 -4 0 -24 -11 -45 -23z"/>
<path d="M1598 1541 l-47 -27 26 -45 c55 -95 50 -91 81 -75 69 37 69 36 27
107 -20 35 -38 65 -39 65 0 1 -22 -10 -48 -25z"/>
<path d="M960 1523 c-32 -11 -69 -41 -125 -98 -44 -45 -90 -87 -102 -93 -14
-8 -77 -11 -180 -11 -138 1 -165 -1 -217 -20 -117 -42 -217 -126 -258 -216
-35 -77 -31 -193 11 -305 53 -144 178 -333 266 -403 133 -106 287 -112 433
-18 85 55 140 123 207 257 68 135 73 139 213 175 198 51 268 177 203 367 -17
49 -19 67 -10 78 16 19 -66 160 -85 145 -8 -7 -28 7 -69 49 -31 33 -76 69 -98
81 -55 28 -132 33 -189 12z m349 -244 c45 -77 45 -79 31 -79 -8 0 -90 130 -90
144 0 22 24 -5 59 -65z m-79 -37 c38 -65 54 -110 30 -86 -20 20 -88 143 -82
148 9 10 9 9 52 -62z m-61 -48 c24 -41 41 -78 37 -81 -3 -4 -8 -4 -10 -2 -12
14 -86 141 -86 149 0 25 18 4 59 -66z m-156 29 c18 -11 -8 -23 -51 -23 -90 0
-149 -62 -139 -147 9 -82 87 -135 166 -113 40 10 91 59 91 85 0 8 9 19 20 25
28 15 27 -13 -3 -65 -56 -100 -196 -113 -270 -26 -82 98 -35 242 88 272 28 7
80 3 98 -8z m97 -62 c42 -74 45 -81 31 -81 -8 0 -91 134 -91 146 0 2 4 4 10 4
5 0 27 -31 50 -69z m-105 15 c41 -17 65 -60 65 -117 0 -33 -6 -47 -34 -75 -28
-28 -42 -34 -75 -34 -23 0 -56 7 -72 16 -31 15 -59 66 -59 104 0 54 65 120
118 120 12 0 38 -6 57 -14z m-416 -331 c67 -112 121 -208 121 -214 0 -11 -51
-41 -69 -41 -10 0 -261 413 -261 430 0 16 64 48 77 38 6 -5 66 -101 132 -213z"/>
<path d="M1488 1479 c-21 -11 -38 -24 -38 -29 0 -14 72 -130 81 -130 10 0 79
40 79 46 0 10 -74 134 -80 134 -3 -1 -22 -10 -42 -21z"/>
<path d="M1382 1419 l-32 -21 27 -49 c16 -27 35 -59 44 -71 l16 -21 37 22 c34
22 36 25 23 45 -7 11 -26 42 -41 69 -15 26 -31 47 -34 47 -4 0 -22 -10 -40
-21z"/>
</g>
</svg>
